<svg width="300" height="323" viewBox="0 0 300 323" fill="none" xmlns="http://www.w3.org/2000/svg">
<rect x="80" width="213" height="65" fill="#1D3557"/>
<rect x="40" y="81" width="213" height="65" fill="#1D3557"/>
<rect y="162" width="213" height="65" fill="#1D3557"/>
<path d="M37.2188 290.531C37.2188 293.5 36.5156 296.013 35.1094 298.07C33.7292 300.102 31.6589 301.651 28.8984 302.719C26.138 303.76 22.7005 304.281 18.5859 304.281C15.5391 304.281 12.9219 304.086 10.7344 303.695C8.57292 303.305 6.38542 302.654 4.17188 301.742V291.898C6.54167 292.966 9.08073 293.852 11.7891 294.555C14.5234 295.232 16.9193 295.57 18.9766 295.57C21.2943 295.57 22.9479 295.232 23.9375 294.555C24.9531 293.852 25.4609 292.94 25.4609 291.82C25.4609 291.091 25.2526 290.44 24.8359 289.867C24.4453 289.268 23.5859 288.604 22.2578 287.875C20.9297 287.12 18.8464 286.143 16.0078 284.945C13.2734 283.799 11.0208 282.641 9.25 281.469C7.50521 280.297 6.20312 278.917 5.34375 277.328C4.51042 275.714 4.09375 273.669 4.09375 271.195C4.09375 267.159 5.65625 264.125 8.78125 262.094C11.9323 260.036 16.138 259.008 21.3984 259.008C24.1068 259.008 26.6849 259.281 29.1328 259.828C31.6068 260.375 34.1458 261.247 36.75 262.445L33.1562 271.039C30.9948 270.102 28.9505 269.333 27.0234 268.734C25.1224 268.135 23.1823 267.836 21.2031 267.836C19.4583 267.836 18.1432 268.07 17.2578 268.539C16.3724 269.008 15.9297 269.724 15.9297 270.688C15.9297 271.391 16.151 272.016 16.5938 272.562C17.0625 273.109 17.9479 273.721 19.25 274.398C20.5781 275.049 22.5182 275.896 25.0703 276.938C27.5443 277.953 29.6927 279.021 31.5156 280.141C33.3385 281.234 34.7448 282.602 35.7344 284.242C36.724 285.857 37.2188 287.953 37.2188 290.531ZM58.4297 259.828V303.5H46.5156V259.828H58.4297ZM52.4922 242.719C54.263 242.719 55.7865 243.135 57.0625 243.969C58.3385 244.776 58.9766 246.299 58.9766 248.539C58.9766 250.753 58.3385 252.289 57.0625 253.148C55.7865 253.982 54.263 254.398 52.4922 254.398C50.6953 254.398 49.1589 253.982 47.8828 253.148C46.6328 252.289 46.0078 250.753 46.0078 248.539C46.0078 246.299 46.6328 244.776 47.8828 243.969C49.1589 243.135 50.6953 242.719 52.4922 242.719ZM122.258 259.008C127.206 259.008 130.943 260.284 133.469 262.836C136.021 265.362 137.297 269.424 137.297 275.023V303.5H125.344V277.992C125.344 274.867 124.81 272.51 123.742 270.922C122.674 269.333 121.021 268.539 118.781 268.539C115.63 268.539 113.391 269.672 112.062 271.938C110.734 274.177 110.07 277.393 110.07 281.586V303.5H98.1562V277.992C98.1562 275.909 97.9219 274.164 97.4531 272.758C96.9844 271.352 96.2682 270.297 95.3047 269.594C94.3411 268.891 93.1042 268.539 91.5938 268.539C89.3802 268.539 87.6354 269.099 86.3594 270.219C85.1094 271.312 84.2109 272.94 83.6641 275.102C83.1432 277.237 82.8828 279.854 82.8828 282.953V303.5H70.9688V259.828H80.0703L81.6719 265.414H82.3359C83.2214 263.904 84.3281 262.68 85.6562 261.742C87.0104 260.805 88.4948 260.115 90.1094 259.672C91.724 259.229 93.3646 259.008 95.0312 259.008C98.2344 259.008 100.943 259.529 103.156 260.57C105.396 261.612 107.115 263.227 108.312 265.414H109.367C110.669 263.174 112.505 261.547 114.875 260.531C117.271 259.516 119.732 259.008 122.258 259.008ZM173.859 259.008C178.781 259.008 182.753 260.922 185.773 264.75C188.82 268.578 190.344 274.19 190.344 281.586C190.344 286.534 189.628 290.701 188.195 294.086C186.763 297.445 184.784 299.984 182.258 301.703C179.732 303.422 176.828 304.281 173.547 304.281C171.438 304.281 169.628 304.021 168.117 303.5C166.607 302.953 165.318 302.263 164.25 301.43C163.182 300.57 162.258 299.659 161.477 298.695H160.852C161.06 299.737 161.216 300.805 161.32 301.898C161.424 302.992 161.477 304.06 161.477 305.102V322.719H149.562V259.828H159.25L160.93 265.492H161.477C162.258 264.32 163.208 263.24 164.328 262.25C165.448 261.26 166.789 260.479 168.352 259.906C169.94 259.307 171.776 259.008 173.859 259.008ZM170.031 268.539C167.948 268.539 166.294 268.969 165.07 269.828C163.846 270.688 162.948 271.977 162.375 273.695C161.828 275.414 161.529 277.589 161.477 280.219V281.508C161.477 284.32 161.737 286.703 162.258 288.656C162.805 290.609 163.703 292.094 164.953 293.109C166.229 294.125 167.974 294.633 170.188 294.633C172.01 294.633 173.508 294.125 174.68 293.109C175.852 292.094 176.724 290.609 177.297 288.656C177.896 286.677 178.195 284.268 178.195 281.43C178.195 277.159 177.531 273.943 176.203 271.781C174.875 269.62 172.818 268.539 170.031 268.539ZM212.102 303.5H200.188V242.719H212.102V303.5ZM236.555 259.828V303.5H224.641V259.828H236.555ZM230.617 242.719C232.388 242.719 233.911 243.135 235.188 243.969C236.464 244.776 237.102 246.299 237.102 248.539C237.102 250.753 236.464 252.289 235.188 253.148C233.911 253.982 232.388 254.398 230.617 254.398C228.82 254.398 227.284 253.982 226.008 253.148C224.758 252.289 224.133 250.753 224.133 248.539C224.133 246.299 224.758 244.776 226.008 243.969C227.284 243.135 228.82 242.719 230.617 242.719Z" fill="#1D3557"/>
<path d="M273.891 268.773H263.578V303.5H251.664V268.773H245.102V263.031L251.664 259.828V256.625C251.664 252.901 252.289 250.01 253.539 247.953C254.815 245.87 256.599 244.411 258.891 243.578C261.208 242.719 263.943 242.289 267.094 242.289C269.411 242.289 271.521 242.484 273.422 242.875C275.323 243.24 276.872 243.656 278.07 244.125L275.023 252.875C274.112 252.589 273.122 252.328 272.055 252.094C270.987 251.859 269.763 251.742 268.383 251.742C266.716 251.742 265.492 252.25 264.711 253.266C263.956 254.255 263.578 255.531 263.578 257.094V259.828H273.891V268.773ZM292.641 259.828V303.5H280.727V259.828H292.641ZM286.703 242.719C288.474 242.719 289.997 243.135 291.273 243.969C292.549 244.776 293.188 246.299 293.188 248.539C293.188 250.753 292.549 252.289 291.273 253.148C289.997 253.982 288.474 254.398 286.703 254.398C284.906 254.398 283.37 253.982 282.094 253.148C280.844 252.289 280.219 250.753 280.219 248.539C280.219 246.299 280.844 244.776 282.094 243.969C283.37 243.135 284.906 242.719 286.703 242.719Z" fill="#E63946"/>
</svg>
