<svg width="18" height="14" viewBox="0 0 18 14" fill="none" xmlns="http://www.w3.org/2000/svg">
<path d="M8.4 11L11 8.4L13.6 11L15 9.6L12.4 7L15 4.4L13.6 3L11 5.6L8.4 3L7 4.4L9.6 7L7 9.6L8.4 11ZM0 7L4.35 0.85C4.53333 0.583333 4.77067 0.375 5.062 0.225C5.354 0.0749999 5.66667 0 6 0H16C16.55 0 17.021 0.196 17.413 0.588C17.8043 0.979333 18 1.45 18 2V12C18 12.55 17.8043 13.021 17.413 13.413C17.021 13.8043 16.55 14 16 14H6C5.66667 14 5.354 13.925 5.062 13.775C4.77067 13.625 4.53333 13.4167 4.35 13.15L0 7Z" fill="#303230"/>
</svg>
