<svg width="80" height="80" viewBox="0 0 80 80" fill="none" xmlns="http://www.w3.org/2000/svg">
<g clip-path="url(#clip0_155_1664)">
<path d="M36.5556 8.88892H5.44444C4.2657 8.88892 3.13524 9.35717 2.30175 10.1907C1.46825 11.0242 1 12.1546 1 13.3334V66.6667C1 67.8454 1.46825 68.9759 2.30175 69.8094C3.13524 70.6429 4.2657 71.1111 5.44444 71.1111H36.5556C37.7343 71.1111 38.8648 70.6429 39.6983 69.8094C40.5317 68.9759 41 67.8454 41 66.6667V13.3334C41 12.1546 40.5317 11.0242 39.6983 10.1907C38.8648 9.35717 37.7343 8.88892 36.5556 8.88892ZM23.2222 66.6667H18.7778V62.2223H23.2222V66.6667ZM5.44444 57.7778V13.3334H36.5556V57.7778H5.44444Z" fill="#1D3557"/>
<path d="M79 40L67.3333 25V33.3167L49 33.3333V46.6667H67.3333V55L79 40Z" stroke="#1D3557" stroke-width="2" stroke-linecap="round" stroke-linejoin="round"/>
<path d="M16 33V22.052C15.9999 21.8193 16.0771 21.5932 16.2195 21.4092C16.3619 21.2252 16.5614 21.0936 16.7866 21.0353C17.0118 20.9769 17.2501 20.995 17.4639 21.0867C17.6777 21.1784 17.8551 21.3386 17.968 21.542L24.032 32.458C24.1449 32.6614 24.3223 32.8216 24.5361 32.9133C24.7499 33.005 24.9882 33.0231 25.2134 32.9647C25.4386 32.9064 25.6381 32.7748 25.7805 32.5908C25.9229 32.4068 26.0001 32.1807 26 31.948V21M14 25H28M14 29H28" stroke="#1D3557" stroke-width="2" stroke-linecap="round" stroke-linejoin="round"/>
<path d="M21 42.75C18.5147 42.75 16.5 45.1003 16.5 48C16.5 50.8992 18.5147 53.25 21 53.25C23.4844 53.25 25.5 50.9002 25.5 48C25.5 45.1003 23.4853 42.75 21 42.75ZM22.875 50.625C22.875 50.8322 22.7072 51 22.5 51H19.5C19.2928 51 19.125 50.8322 19.125 50.625V49.875C19.125 49.6678 19.2928 49.5 19.5 49.5H20.25V46.9012L20.228 46.9158C20.187 46.9431 20.1411 46.9621 20.0928 46.9717C20.0445 46.9812 19.9948 46.9812 19.9465 46.9715C19.8982 46.9619 19.8523 46.9428 19.8114 46.9153C19.7705 46.8879 19.7354 46.8527 19.7081 46.8117L19.2919 46.1878C19.2645 46.1469 19.2456 46.1009 19.236 46.0526C19.2264 46.0043 19.2265 45.9546 19.2361 45.9063C19.2458 45.858 19.2649 45.8121 19.2923 45.7712C19.3197 45.7303 19.3549 45.6952 19.3959 45.668L20.1145 45.1889C20.2993 45.0657 20.5164 45 20.7384 45H21.375C21.5822 45 21.75 45.1678 21.75 45.375V49.5H22.5C22.7072 49.5 22.875 49.6678 22.875 49.875V50.625ZM34.5 39H7.5C6.67172 39 6 39.6717 6 40.5V55.5C6 56.3283 6.67172 57 7.5 57H34.5C35.3283 57 36 56.3283 36 55.5V40.5C36 39.6717 35.3283 39 34.5 39ZM33.75 51.75C32.093 51.75 30.75 53.093 30.75 54.75H11.25C11.25 53.093 9.90703 51.75 8.25 51.75V44.25C9.90703 44.25 11.25 42.907 11.25 41.25H30.75C30.75 42.907 32.093 44.25 33.75 44.25V51.75Z" fill="#1D3557"/>
</g>
<defs>
<clipPath id="clip0_155_1664">
<rect width="80" height="80" fill="white"/>
</clipPath>
</defs>
</svg>
