<svg width="20" height="20" viewBox="0 0 20 20" fill="none" xmlns="http://www.w3.org/2000/svg">
<path d="M0.998901 5V3C0.998901 2.46957 1.20961 1.96086 1.58469 1.58579C1.95976 1.21071 2.46847 1 2.9989 1H4.9989M14.9989 1H16.9989C17.5293 1 18.038 1.21071 18.4131 1.58579C18.7882 1.96086 18.9989 2.46957 18.9989 3V5M18.9989 15V17C18.9989 17.5304 18.7882 18.0391 18.4131 18.4142C18.038 18.7893 17.5293 19 16.9989 19H14.9989M4.9989 19H2.9989C2.46847 19 1.95976 18.7893 1.58469 18.4142C1.20961 18.0391 0.998901 17.5304 0.998901 17V15M5.9989 12C5.9989 12 7.4989 14 9.9989 14C12.4989 14 13.9989 12 13.9989 12M6.9989 7H7.0089M12.9989 7H13.0089" stroke="#1D3557" stroke-width="2" stroke-linecap="round" stroke-linejoin="round"/>
</svg>
