<svg width="19" height="20" viewBox="0 0 19 20" fill="none" xmlns="http://www.w3.org/2000/svg">
<path d="M15.8089 2.47C15.7289 2.47 15.6489 2.45 15.5789 2.41C13.6589 1.42 11.9989 1 10.0089 1C8.02889 1 6.14889 1.47 4.43889 2.41C4.19889 2.54 3.89889 2.45 3.75889 2.21C3.69652 2.09305 3.68254 1.95629 3.71994 1.82913C3.75734 1.70197 3.84314 1.59457 3.95889 1.53C5.81889 0.52 7.85889 0 10.0089 0C12.1389 0 13.9989 0.47 16.0389 1.52C16.2889 1.65 16.3789 1.95 16.2489 2.19C16.2094 2.27336 16.1471 2.34387 16.0692 2.3934C15.9914 2.44294 15.9012 2.46949 15.8089 2.47ZM1.49889 7.72C1.40671 7.72086 1.3161 7.69617 1.2371 7.64866C1.1581 7.60116 1.0938 7.5327 1.05133 7.45088C1.00887 7.36906 0.989902 7.27708 0.996531 7.18514C1.00316 7.09319 1.03513 7.00488 1.08889 6.93C2.07889 5.53 3.33889 4.43 4.83889 3.66C7.97889 2.04 11.9989 2.03 15.1489 3.65C16.6489 4.42 17.9089 5.51 18.8989 6.9C18.9373 6.95374 18.9646 7.01455 18.9793 7.07891C18.9941 7.14328 18.9959 7.20993 18.9848 7.27501C18.9736 7.34009 18.9497 7.40232 18.9143 7.4581C18.879 7.51388 18.833 7.56211 18.7789 7.6C18.5489 7.76 18.2389 7.71 18.0789 7.48C17.2032 6.24038 16.0399 5.23156 14.6889 4.54C11.8189 3.07 8.14889 3.07 5.28889 4.55C3.92889 5.25 2.78889 6.25 1.88889 7.51C1.80889 7.65 1.65889 7.72 1.49889 7.72ZM7.74889 19.79C7.68332 19.7908 7.6183 19.7779 7.55802 19.752C7.49774 19.7262 7.44354 19.688 7.39889 19.64C6.52889 18.77 6.05889 18.21 5.38889 17C4.69889 15.77 4.33889 14.27 4.33889 12.66C4.33889 9.69 6.87889 7.27 9.99889 7.27C13.1189 7.27 15.6589 9.69 15.6589 12.66C15.6589 12.94 15.4389 13.16 15.1589 13.16C14.8789 13.16 14.6589 12.94 14.6589 12.66C14.6589 10.24 12.5689 8.27 9.99889 8.27C7.42889 8.27 5.33889 10.24 5.33889 12.66C5.33889 14.1 5.65889 15.43 6.26889 16.51C6.90889 17.66 7.34889 18.15 8.11889 18.93C8.30889 19.13 8.30889 19.44 8.11889 19.64C8.00889 19.74 7.87889 19.79 7.74889 19.79ZM14.9189 17.94C13.7289 17.94 12.6789 17.64 11.8189 17.05C10.3289 16.04 9.43889 14.4 9.43889 12.66C9.43889 12.38 9.65889 12.16 9.93889 12.16C10.2189 12.16 10.4389 12.38 10.4389 12.66C10.4389 14.07 11.1589 15.4 12.3789 16.22C13.0889 16.7 13.9189 16.93 14.9189 16.93C15.1589 16.93 15.5589 16.9 15.9589 16.83C16.2289 16.78 16.4889 16.96 16.5389 17.24C16.5889 17.51 16.4089 17.77 16.1289 17.82C15.5589 17.93 15.0589 17.94 14.9189 17.94ZM12.9089 20C12.8689 20 12.8189 19.99 12.7789 19.98C11.1889 19.54 10.1489 18.95 9.05889 17.88C8.36817 17.198 7.82047 16.385 7.44786 15.4887C7.07525 14.5923 6.88521 13.6307 6.88889 12.66C6.88889 11.04 8.26889 9.72 9.96889 9.72C11.6689 9.72 13.0489 11.04 13.0489 12.66C13.0489 13.73 13.9789 14.6 15.1289 14.6C16.2789 14.6 17.2089 13.73 17.2089 12.66C17.2089 8.89 13.9589 5.83 9.95889 5.83C7.11889 5.83 4.51889 7.41 3.34889 9.86C2.95889 10.67 2.75889 11.62 2.75889 12.66C2.75889 13.44 2.82889 14.67 3.42889 16.27C3.52889 16.53 3.39889 16.82 3.13889 16.91C2.87889 17.01 2.58889 16.87 2.49889 16.62C2.01703 15.3553 1.76966 14.0134 1.76889 12.66C1.76889 11.46 1.99889 10.37 2.44889 9.42C3.77889 6.63 6.72889 4.82 9.95889 4.82C14.5089 4.82 18.2089 8.33 18.2089 12.65C18.2089 14.27 16.8289 15.59 15.1289 15.59C13.4289 15.59 12.0489 14.27 12.0489 12.65C12.0489 11.58 11.1189 10.71 9.96889 10.71C8.81889 10.71 7.88889 11.58 7.88889 12.65C7.88889 14.36 8.54889 15.96 9.75889 17.16C10.7089 18.1 11.6189 18.62 13.0289 19.01C13.2989 19.08 13.4489 19.36 13.3789 19.62C13.3289 19.85 13.1189 20 12.9089 20Z" fill="#1D3557"/>
</svg>
